<?xml version="1.0" encoding="UTF-8"?>
<svg id="Layer_1" xmlns="http://www.w3.org/2000/svg" version="1.1" viewBox="0 0 1080 1080">
  <!-- Generator: Adobe Illustrator 29.7.1, SVG Export Plug-In . SVG Version: 2.1.1 Build 8)  -->
  <defs>
    <style>
      .st0 {
        fill: none;
        stroke: #ebe8dd;
        stroke-miterlimit: 10;
        stroke-width: 4px;
      }
    </style>
  </defs>
  <g>
    <g>
      <path class="st0" d="M717.4,440.9h-118.5c0-32.6-26.4-58.9-58.9-58.9s-58.9,26.4-58.9,58.9h-118.5c0-98,79.4-177.4,177.4-177.4s177.4,79.4,177.4,177.4Z"/>
      <g>
        <line class="st0" x1="484" y1="422.4" x2="371.6" y2="385.8"/>
        <line class="st0" x1="505.5" y1="393.1" x2="436" y2="297.3"/>
        <line class="st0" x1="540" y1="382" x2="540" y2="263.5"/>
        <line class="st0" x1="574.5" y1="393.1" x2="644" y2="297.3"/>
        <line class="st0" x1="596" y1="422.4" x2="708.4" y2="385.8"/>
      </g>
    </g>
    <rect class="st0" x="362.6" y="440.9" width="118.5" height="65.8"/>
    <rect class="st0" x="598.9" y="440.9" width="118.5" height="65.8"/>
    <rect class="st0" x="362.6" y="506.7" width="118.5" height="103.2"/>
    <rect class="st0" x="598.9" y="506.7" width="118.5" height="103.2"/>
    <rect class="st0" x="481.1" y="506.7" width="117.9" height="103.2"/>
    <rect class="st0" x="362.6" y="610" width="118.5" height="103.2"/>
    <rect class="st0" x="598.9" y="610" width="118.5" height="103.2"/>
    <rect class="st0" x="481.1" y="610" width="117.9" height="103.2"/>
    <rect class="st0" x="362.6" y="713.2" width="118.5" height="103.2"/>
    <rect class="st0" x="598.9" y="713.2" width="118.5" height="103.2"/>
    <rect class="st0" x="481.1" y="713.2" width="117.9" height="103.2"/>
  </g>
  <g>
    <polyline class="st0" points="520.3 506.7 480.9 558.4 520.3 610"/>
    <polyline class="st0" points="559.7 610 599.1 558.4 559.7 506.7"/>
    <polyline class="st0" points="559.7 506.7 520.3 558.4 559.7 610"/>
    <polyline class="st0" points="520.3 610 559.7 558.4 520.3 506.7"/>
  </g>
  <g>
    <polyline class="st0" points="520.3 610 480.9 661.6 520.3 713.2"/>
    <polyline class="st0" points="559.7 713.2 599.1 661.6 559.7 610"/>
    <polyline class="st0" points="559.7 610 520.3 661.6 559.7 713.2"/>
    <polyline class="st0" points="520.3 713.2 559.7 661.6 520.3 610"/>
  </g>
  <g>
    <polyline class="st0" points="520.3 713.2 480.9 764.8 520.3 816.5"/>
    <polyline class="st0" points="559.7 816.5 599.1 764.8 559.7 713.2"/>
    <polyline class="st0" points="559.7 713.2 520.3 764.8 559.7 816.5"/>
    <polyline class="st0" points="520.3 816.5 559.7 764.8 520.3 713.2"/>
  </g>
</svg>